<?xml version="1.0" encoding="UTF-8"?>
<svg width="1024" height="1024" viewBox="0 0 1024 1024" fill="none" xmlns="http://www.w3.org/2000/svg">
  <defs>
    <linearGradient id="mintGrad" x1="180" y1="450" x2="860" y2="830" gradientUnits="userSpaceOnUse">
      <stop stop-color="#98C8C3" />
      <stop offset="1" stop-color="#89BDB8" />
    </linearGradient>
  </defs>

  <!-- Transparent SVG: only logo artwork, no background shape -->
  <circle cx="512" cy="512" r="496" stroke="#92C4BF" stroke-width="8" />
  <path d="M132 412C146 316 188 248 216 208" stroke="#A6CDC9" stroke-width="6" stroke-linecap="round" />

  <text x="512" y="322" text-anchor="middle" fill="#4A5F7D" font-family="Manrope, Inter, Segoe UI, Arial, sans-serif" font-size="94" font-weight="300" letter-spacing="0.5">
    &#913;&#957;&#952;&#959;&#973;&#955;&#945; &#931;&#969;&#956;&#945;&#961;&#943;&#960;&#945;
  </text>

  <text x="512" y="430" text-anchor="middle" fill="#4A5F7D" font-family="Manrope, Inter, Segoe UI, Arial, sans-serif" font-size="58" font-weight="400">
    &#922;&#959;&#953;&#957;&#969;&#957;&#953;&#954;&#942; &#923;&#949;&#953;&#964;&#959;&#965;&#961;&#947;&#972;&#962;, Msc
  </text>

  <text x="512" y="500" text-anchor="middle" fill="#4A5F7D" font-family="Manrope, Inter, Segoe UI, Arial, sans-serif" font-size="58" font-weight="400">
    &#931;&#973;&#956;&#946;&#959;&#965;&#955;&#959;&#962; &#936;&#965;&#967;&#953;&#954;&#942;&#962; &#933;&#947;&#949;&#943;&#945;&#962;
  </text>

  <!-- Restored hand motif -->
  <path
    d="M170 610
       C251 715 374 760 492 710
       C553 684 609 677 669 684
       C722 691 773 679 804 642
       C819 624 826 604 820 585
       C812 556 781 555 736 575
       C700 592 659 610 618 638"
    stroke="url(#mintGrad)"
    stroke-width="16"
    stroke-linecap="round"
    stroke-linejoin="round"
  />

  <path
    d="M620 639
       C694 631 765 631 838 610
       C869 601 884 615 867 633
       C836 666 786 690 732 693
       C683 695 643 683 619 666"
    stroke="url(#mintGrad)"
    stroke-width="10"
    stroke-linecap="round"
    stroke-linejoin="round"
  />

  <path
    d="M170 610
       C280 747 422 811 581 808
       C739 804 868 739 968 606"
    stroke="#8EBFBB"
    stroke-width="14"
    stroke-linecap="round"
    stroke-linejoin="round"
  />
</svg>
